# xmcd CD database file
#
# Track frame offsets:
#	182
#	15165
#	26782
#	34367
#	43305
#	60020
#	70260
#	82765
#	92900
#	102562
#	116142
#	129225
#	140115
#	154292
#	163845
#	175220
#	190450
#	200042
#	212792
#	224675
#	234455
#	248380
#	261092
#
# Disc length: 3645 seconds
#
# Revision: 1
# Processed by: cddbd v1.4PL0 Copyright (c) Steve Scherf et al.
# Submitted via: CDex 1.40Release
#
DISCID=520e3b17
DTITLE=Carl Perkins - Only You
DYEAR=1900
DGENRE=Rock and Roll
TTITLE0=Only You
TTITLE1=Right String Baby (Wrong Yo-Yo)
TTITLE2=Glad All Over
TTITLE3=Lend Me Your Comb
TTITLE4=Sweeter Than Candy
TTITLE5=Daddy Sang Bass
TTITLE6=Rise and Shine
TTITLE7=Blue Suede Shoes
TTITLE8=Matchbox
TTITLE9=Every Road
TTITLE10=Hallelujah Special
TTITLE11=Dixie Fried
TTITLE12=Georgia Court Room
TTITLE13=This Old House
TTITLE14=Sing a Song
TTITLE15=The Hurt Put on by You
TTITLE16=All Mama's Children
TTITLE17=Boppin' the Blues
TTITLE18=Gone, Gone, Gone
TTITLE19=Movie Magg
TTITLE20=Tennessee
TTITLE21=That's Right
TTITLE22=Your True Love
EXTD=ID3G: 78
EXTT0=
EXTT1=
EXTT2=
EXTT3=
EXTT4=
EXTT5=
EXTT6=
EXTT7=
EXTT8=
EXTT9=
EXTT10=
EXTT11=
EXTT12=
EXTT13=
EXTT14=
EXTT15=
EXTT16=
EXTT17=
EXTT18=
EXTT19=
EXTT20=
EXTT21=
EXTT22=
PLAYORDER=
